<svg width="18" height="18" viewBox="0 0 18 18" fill="none" xmlns="http://www.w3.org/2000/svg">
<g clip-path="url(#clip0_723_1491)">
<path d="M17.6899 14.8966H0.310603C0.139217 14.8966 0.000244141 14.7576 0.000244141 14.5863V3.41387C0.000244141 3.24249 0.139217 3.10352 0.310603 3.10352H17.6899C17.8613 3.10352 18.0002 3.24249 18.0002 3.41387V14.5863C18.0002 14.7577 17.8612 14.8966 17.6899 14.8966Z" fill="#F5F5F5"/>
<path d="M13.9658 3.10352H4.03491V14.8967H13.9658V3.10352Z" fill="#F5F5F5"/>
<path d="M0.310603 3.10352C0.139217 3.10352 0.000244141 3.24245 0.000244141 3.41384V14.5862C0.000244141 14.7576 0.139217 14.8966 0.310603 14.8966H4.03473V3.10352H0.310603Z" fill="#FF4B55"/>
<path d="M17.6902 3.10352H13.9661V14.8966H17.6902C17.8616 14.8966 18.0006 14.7576 18.0006 14.5862V3.41384C18.0006 3.24245 17.8616 3.10352 17.6902 3.10352Z" fill="#FF4B55"/>
<path d="M10.8837 10.3627L12.7253 9.31039L12.3027 9.0991C12.1842 9.03983 12.1164 8.91186 12.1339 8.78048L12.2714 7.74963L11.4917 7.97646C11.3195 8.02659 11.1408 7.92063 11.102 7.74552L11.0274 7.40802L10.2953 8.26477C10.1938 8.38353 10.0005 8.29283 10.027 8.13884L10.3396 6.32099L9.86094 6.45191C9.72113 6.49016 9.57347 6.42653 9.5053 6.29863L9.00127 5.35395V5.35254L9.00092 5.35324L9.00053 5.35254V5.35395L8.4965 6.29863C8.42826 6.42649 8.2806 6.49012 8.14079 6.45191L7.6621 6.32099L7.97474 8.13884C8.00122 8.29276 7.80786 8.38349 7.70636 8.26477L6.97431 7.40802L6.89963 7.74552C6.86089 7.92066 6.68216 8.02655 6.50993 7.97646L5.73027 7.74963L5.86776 8.78048C5.88531 8.91182 5.81746 9.03983 5.69894 9.0991L5.27637 9.31039L7.11795 10.3627C7.30871 10.4717 7.39231 10.7029 7.31536 10.9087L7.15793 11.3298L8.73591 11.195C8.82324 11.1876 8.89756 11.2579 8.89499 11.3455L8.84528 13.0345H9.15564L9.10589 11.3454C9.10333 11.2578 9.17765 11.1875 9.26498 11.195L10.8437 11.3298L10.6863 10.9087C10.6094 10.7029 10.693 10.4717 10.8837 10.3627Z" fill="#FF4B55"/>
</g>
<defs>
<clipPath id="clip0_723_1491">
<rect width="18" height="18" fill="white"/>
</clipPath>
</defs>
</svg>
