<svg width="20" height="18" viewBox="0 0 20 18" fill="none" xmlns="http://www.w3.org/2000/svg">
<path d="M18.7816 8.40968C18.5995 8.41046 18.4222 8.35137 18.277 8.24149L9.81129 1.89498L1.34555 8.24149C1.16712 8.37526 0.942837 8.43278 0.722044 8.40127C0.50124 8.36965 0.30202 8.25169 0.168194 8.07329C0.0343793 7.89489 -0.023087 7.67052 0.00845494 7.44974C0.0399968 7.22896 0.157957 7.02971 0.336388 6.89594L9.30671 0.168194C9.45225 0.0590136 9.62931 0 9.81129 0C9.99328 0 10.1703 0.0590136 10.3159 0.168194L19.2862 6.89594C19.449 7.02814 19.5565 7.21651 19.5877 7.42395C19.6188 7.63139 19.5712 7.84298 19.4544 8.01723C19.383 8.13272 19.2842 8.22893 19.1669 8.29733C19.0496 8.36572 18.9173 8.4043 18.7816 8.40968Z" fill="#3F4096"/>
<path d="M16.5391 17.3801H3.08364C2.8615 17.3772 2.64929 17.2877 2.4922 17.1306C2.33511 16.9735 2.24558 16.7612 2.24268 16.5391V5.88687C2.24268 5.66383 2.33128 5.44992 2.48899 5.29221C2.6467 5.1345 2.86061 5.0459 3.08364 5.0459C3.30668 5.0459 3.52059 5.1345 3.6783 5.29221C3.83601 5.44992 3.92461 5.66383 3.92461 5.88687V15.6982H15.6982V5.88687C15.6982 5.66383 15.7867 5.44992 15.9445 5.29221C16.1022 5.1345 16.3161 5.0459 16.5391 5.0459C16.7622 5.0459 16.9761 5.1345 17.1337 5.29221C17.2915 5.44992 17.3801 5.66383 17.3801 5.88687V16.5391C17.3772 16.7612 17.2877 16.9735 17.1306 17.1306C16.9735 17.2877 16.7613 17.3772 16.5391 17.3801Z" fill="#3F4096"/>
<path d="M12.0537 17.3796C11.8315 17.3767 11.6193 17.2872 11.4622 17.1301C11.3051 16.973 11.2156 16.7608 11.2127 16.5386V9.53057H8.40947V16.5386C8.40947 16.7617 8.32089 16.9756 8.16313 17.1333C8.00547 17.291 7.79153 17.3796 7.56851 17.3796C7.34547 17.3796 7.13156 17.291 6.97385 17.1333C6.81614 16.9756 6.72754 16.7617 6.72754 16.5386V8.6896C6.73044 8.46747 6.81998 8.25521 6.97706 8.09812C7.13415 7.94103 7.34637 7.85155 7.56851 7.84863H12.0537C12.2758 7.85155 12.4881 7.94103 12.6451 8.09812C12.8022 8.25521 12.8917 8.46747 12.8946 8.6896V16.5386C12.8917 16.7608 12.8022 16.973 12.6451 17.1301C12.4881 17.2872 12.2758 17.3767 12.0537 17.3796Z" fill="#3F4096"/>
</svg>
