<svg width="18" height="18" viewBox="0 0 18 18" fill="none" xmlns="http://www.w3.org/2000/svg">
<path d="M0 10.9658H18V14.5865C18 14.7579 17.861 14.8968 17.6896 14.8968H0.310359C0.138972 14.8968 0 14.7579 0 14.5865V10.9658Z" fill="#73AF00"/>
<path d="M0.310359 3.10352H17.6896C17.861 3.10352 18 3.24249 18 3.41387V7.03454H0V3.41384C0 3.24245 0.138972 3.10352 0.310359 3.10352Z" fill="#464655"/>
<path d="M18 7.03418H0V10.965H18V7.03418Z" fill="#C8414B"/>
<path d="M18 6.82715H0V7.44783H18V6.82715Z" fill="#F5F5F5"/>
<path d="M18 10.5518H0V11.1724H18V10.5518Z" fill="#F5F5F5"/>
<path d="M10.6617 6.38472C10.9116 5.86944 11.1724 4.67578 11.1724 4.67578C11.1724 4.67578 10.3964 5.61955 10.1465 6.1348C10.0941 6.2428 10.1163 6.367 10.1919 6.45103L7.34546 12.3198L7.53868 12.4135L10.3852 6.54475C10.4981 6.55217 10.6094 6.49272 10.6617 6.38472Z" fill="#F5F5F5"/>
<path d="M7.33828 6.38472C7.08839 5.86944 6.82764 4.67578 6.82764 4.67578C6.82764 4.67578 7.6036 5.61955 7.85356 6.1348C7.90595 6.2428 7.88373 6.367 7.80807 6.45103L10.6546 12.3198L10.4613 12.4135L7.61485 6.54475C7.50193 6.55217 7.39063 6.49272 7.33828 6.38472Z" fill="#F5F5F5"/>
<path d="M10.5517 8.99993C10.5517 10.7139 9.28564 12.1034 8.99997 12.1034C8.71429 12.1034 7.44824 10.7139 7.44824 8.99993C7.44824 7.28593 8.71429 5.89648 8.99997 5.89648C9.28564 5.89648 10.5517 7.28593 10.5517 8.99993Z" fill="#C8414B"/>
<path d="M10.2413 10.4976C10.424 10.0535 10.5516 9.54347 10.5516 9.00027C10.5516 8.45707 10.4241 7.94702 10.2413 7.50293C10.0585 7.94699 9.93091 8.45707 9.93091 9.00027C9.93091 9.54347 10.0585 10.0535 10.2413 10.4976Z" fill="#464655"/>
<path d="M7.7586 7.50293C7.57582 7.94699 7.44824 8.45707 7.44824 9.00027C7.44824 9.54347 7.57579 10.0535 7.7586 10.4976C7.94138 10.0535 8.06896 9.54347 8.06896 9.00027C8.06896 8.45707 7.94138 7.94702 7.7586 7.50293Z" fill="#464655"/>
<path d="M9.0003 9.46519C9.17171 9.46519 9.31066 9.25677 9.31066 8.99968C9.31066 8.74259 9.17171 8.53418 9.0003 8.53418C8.82889 8.53418 8.68994 8.74259 8.68994 8.99968C8.68994 9.25677 8.82889 9.46519 9.0003 9.46519Z" fill="#F5F5F5"/>
<path d="M9.04688 5.89648V8.53439C9.1315 8.35826 9.28158 7.83777 9.28158 7.21544C9.28158 6.59307 9.1315 6.07262 9.04688 5.89648Z" fill="#F5F5F5"/>
<path d="M8.9537 5.89648C8.86908 6.07262 8.71899 6.59307 8.71899 7.21544C8.71899 7.83781 8.86908 8.3583 8.9537 8.53439V5.89648Z" fill="#F5F5F5"/>
<path d="M9.04688 9.46582V12.1037C9.1315 11.9276 9.28158 11.4071 9.28158 10.7848C9.28158 10.1624 9.1315 9.64195 9.04688 9.46582Z" fill="#F5F5F5"/>
<path d="M8.9537 9.46582C8.86908 9.64195 8.71899 10.1624 8.71899 10.7848C8.71899 11.4071 8.86908 11.9276 8.9537 12.1037V9.46582Z" fill="#F5F5F5"/>
</svg>
