<svg width="19" height="19" viewBox="0 0 19 19" fill="none" xmlns="http://www.w3.org/2000/svg">
<path fill-rule="evenodd" clip-rule="evenodd" d="M14.2502 7.91667C14.2502 7.48046 13.8955 7.125 13.4585 7.125C13.0215 7.125 12.6668 7.48046 12.6668 7.91667C12.6668 8.35288 13.0215 8.70833 13.4585 8.70833C13.8955 8.70833 14.2502 8.35288 14.2502 7.91667ZM15.8335 7.91667C15.8335 9.22608 14.7679 10.2917 13.4585 10.2917C12.1491 10.2917 11.0835 9.22608 11.0835 7.91667C11.0835 6.60725 12.1491 5.54167 13.4585 5.54167C14.7679 5.54167 15.8335 6.60725 15.8335 7.91667ZM8.7085 5.54167C8.7085 4.66846 7.99837 3.95833 7.12516 3.95833C6.25195 3.95833 5.54183 4.66846 5.54183 5.54167C5.54183 6.41488 6.25195 7.125 7.12516 7.125C7.99837 7.125 8.7085 6.41488 8.7085 5.54167ZM10.2918 5.54167C10.2918 7.28808 8.87158 8.70833 7.12516 8.70833C5.37875 8.70833 3.9585 7.28808 3.9585 5.54167C3.9585 3.79525 5.37875 2.375 7.12516 2.375C8.87158 2.375 10.2918 3.79525 10.2918 5.54167ZM11.036 11.9114C11.724 11.3794 12.571 11.0833 13.4585 11.0833C15.6411 11.0833 17.4168 12.859 17.4168 15.0417C17.4168 15.4787 17.063 15.8333 16.6252 15.8333C16.1874 15.8333 15.8335 15.4787 15.8335 15.0417C15.8335 13.7323 14.7679 12.6667 13.4585 12.6667C12.9178 12.6667 12.404 12.8519 11.9892 13.1805C12.4198 13.969 12.6668 14.873 12.6668 15.8333C12.6668 16.2703 12.313 16.625 11.8752 16.625C11.4374 16.625 11.0835 16.2703 11.0835 15.8333C11.0835 13.6507 9.30779 11.875 7.12516 11.875C4.94254 11.875 3.16683 13.6507 3.16683 15.8333C3.16683 16.2703 2.81295 16.625 2.37516 16.625C1.93737 16.625 1.5835 16.2703 1.5835 15.8333C1.5835 12.7775 4.07012 10.2917 7.12516 10.2917C8.6507 10.2917 10.033 10.9115 11.036 11.9114Z" fill="#222222"/>
</svg>
