<svg width="19" height="19" viewBox="0 0 19 19" fill="none" xmlns="http://www.w3.org/2000/svg">
<path fill-rule="evenodd" clip-rule="evenodd" d="M3.48565 9.20042C4.36915 9.50363 5.07295 10.243 5.36745 11.1804L5.39911 11.2754C5.73636 12.2697 5.5994 13.34 5.03415 14.1428C4.93124 14.2885 4.9542 14.4626 5.06265 14.545L6.70299 15.791C6.76078 15.8346 6.81699 15.8346 6.85182 15.8306C6.8914 15.8243 6.9492 15.8029 6.9959 15.7364L7.17878 15.4768C7.72424 14.7033 8.60299 14.2259 9.53082 14.199C10.5727 14.1776 11.5084 14.655 12.0911 15.4965L12.1845 15.6319C12.2312 15.6984 12.2882 15.7206 12.3286 15.7269C12.3634 15.734 12.4204 15.7317 12.4774 15.6873L14.109 14.4563C14.223 14.3708 14.2484 14.1879 14.1637 14.0652L13.9578 13.7683C13.4274 13.002 13.2699 12.0077 13.5367 11.1091C13.8264 10.1306 14.5634 9.35638 15.5095 9.03972L15.6686 8.98588C15.7961 8.94392 15.8649 8.78559 15.8198 8.63992L15.1968 6.64413C15.1675 6.55072 15.1073 6.50876 15.0741 6.49134C15.0266 6.4668 14.9751 6.46284 14.926 6.47947L14.6569 6.56892C13.7362 6.8753 12.7204 6.70905 11.9407 6.12242L11.8552 6.0583C11.1142 5.50097 10.6732 4.60242 10.6764 3.65559L10.6779 3.43392C10.6779 3.32863 10.6281 3.26292 10.598 3.23284C10.5695 3.20355 10.5212 3.16872 10.4531 3.16872L8.43674 3.16634C8.31324 3.16634 8.2127 3.2843 8.2119 3.42997L8.21111 3.62155C8.20715 4.58342 7.7567 5.49859 7.0062 6.07097L6.90407 6.14855C6.07836 6.77634 5.0017 6.95367 4.02636 6.62117C3.98915 6.60851 3.95432 6.61088 3.92107 6.6283C3.89574 6.64097 3.84982 6.67342 3.82765 6.74547L3.18086 8.80063C3.13415 8.95026 3.21095 9.10622 3.35582 9.15609L3.48565 9.20042ZM6.81936 17.4163C6.43461 17.4163 6.06095 17.2913 5.74586 17.0514L4.10553 15.8061C3.32178 15.2123 3.1484 14.07 3.7184 13.2601C4.01449 12.8405 4.07545 12.3014 3.90128 11.79L3.85774 11.657C3.71286 11.1962 3.38195 10.8384 2.97265 10.6983H2.97186L2.84282 10.6531C1.87857 10.323 1.36399 9.30097 1.67036 8.32563L2.31636 6.27126C2.46282 5.80655 2.7787 5.4313 3.2062 5.21517C3.6242 5.00459 4.09682 4.97213 4.53857 5.12334C5.01278 5.28484 5.53924 5.19697 5.94536 4.88822L6.04749 4.81063C6.40849 4.53513 6.6262 4.08784 6.62778 3.61522L6.62857 3.42442C6.63253 2.40792 7.44399 1.58301 8.43595 1.58301H8.43911L10.4555 1.58538C10.9321 1.58617 11.3817 1.77459 11.7206 2.1158C12.0713 2.46809 12.2629 2.93913 12.2613 3.44184L12.2597 3.66272C12.2581 4.1108 12.4632 4.53434 12.8091 4.79401L12.8938 4.85813C13.2572 5.13126 13.7306 5.20963 14.1557 5.06713L14.4241 4.97767C14.8809 4.82567 15.367 4.86288 15.7953 5.08217C16.2347 5.30701 16.5592 5.69413 16.7081 6.17309L17.3311 8.16888C17.6319 9.13313 17.111 10.1734 16.1713 10.4877L16.0122 10.5407C15.5562 10.6943 15.1976 11.0743 15.0543 11.5588C14.9229 12.0029 14.9989 12.4914 15.2593 12.8666L15.4652 13.1635C16.0304 13.9805 15.8499 15.1268 15.063 15.7198L13.4314 16.9516C13.0395 17.2477 12.5589 17.3673 12.0768 17.2905C11.5907 17.2121 11.1664 16.9429 10.8822 16.5328L10.7888 16.3967C10.5117 15.9977 10.0684 15.7554 9.60365 15.7815C9.13815 15.7942 8.73599 16.0151 8.47315 16.3888L8.29028 16.6484C8.0037 17.0545 7.57857 17.3198 7.09486 17.3958C7.00224 17.41 6.9104 17.4163 6.81936 17.4163V17.4163ZM9.5001 8.3121C8.8454 8.3121 8.3126 8.84489 8.3126 9.4996C8.3126 10.1543 8.8454 10.6871 9.5001 10.6871C10.1548 10.6871 10.6876 10.1543 10.6876 9.4996C10.6876 8.84489 10.1548 8.3121 9.5001 8.3121M9.5001 12.2704C7.97219 12.2704 6.72927 11.0275 6.72927 9.49959C6.72927 7.97168 7.97219 6.72876 9.5001 6.72876C11.028 6.72876 12.2709 7.97168 12.2709 9.49959C12.2709 11.0275 11.028 12.2704 9.5001 12.2704" fill="#222222"/>
</svg>
