<svg width="19" height="19" viewBox="0 0 19 19" fill="none" xmlns="http://www.w3.org/2000/svg">
<path fill-rule="evenodd" clip-rule="evenodd" d="M13.4584 6.33364H3.16669C2.72969 6.33364 2.37502 5.97976 2.37502 5.54197C2.37502 5.10418 2.72969 4.7503 3.16669 4.7503H13.5233L12.2899 3.79239C11.9447 3.52401 11.8821 3.02605 12.1505 2.68168C12.4189 2.33572 12.9169 2.27318 13.2612 2.54155L16.3186 4.91655C16.5142 5.06776 16.6266 5.3013 16.625 5.5491C16.6234 5.7953 16.5063 6.02726 16.3084 6.1753L13.1417 8.5503C12.9992 8.65718 12.8321 8.70864 12.6675 8.70864C12.4268 8.70864 12.1885 8.59939 12.0334 8.39197C11.7713 8.04205 11.8418 7.54568 12.1917 7.28364L13.4584 6.33364ZM5.54168 11.8753H15.8333C16.2703 11.8753 16.625 12.2292 16.625 12.667C16.625 13.1048 16.2703 13.4586 15.8333 13.4586H5.47677L6.71018 14.4166C7.05535 14.6849 7.11789 15.1829 6.84952 15.5273C6.69356 15.7283 6.46002 15.8336 6.2241 15.8336C6.05389 15.8336 5.88289 15.7798 5.73881 15.6674L2.68139 13.2924C2.48585 13.1412 2.37343 12.9076 2.37502 12.6598C2.3766 12.4136 2.49377 12.1817 2.69168 12.0336L5.85835 9.65864C6.20906 9.3966 6.70464 9.46705 6.96668 9.81697C7.22872 10.1669 7.15827 10.6633 6.80835 10.9253L5.54168 11.8753Z" fill="#222222"/>
</svg>
