<svg width="18" height="18" viewBox="0 0 18 18" fill="none" xmlns="http://www.w3.org/2000/svg">
<g clip-path="url(#clip0_723_1499)">
<path d="M17.6898 14.8966H0.310602C0.139216 14.8966 0.000244141 14.7576 0.000244141 14.5862V3.41387C0.000244141 3.24249 0.139216 3.10352 0.310602 3.10352H17.6899C17.8612 3.10352 18.0002 3.24249 18.0002 3.41387V14.5862C18.0002 14.7576 17.8612 14.8966 17.6898 14.8966Z" fill="#41479B"/>
<path d="M18.0002 3.41387C18.0002 3.24249 17.8612 3.10352 17.6898 3.10352H16.3013L10.5519 6.87039V3.10352H7.44845V6.87039L1.69906 3.10352H0.310602C0.139216 3.10352 0.000244141 3.24249 0.000244141 3.41387V4.21652L4.93296 7.44832H0.000244141V10.5518H4.93296L0.000244141 13.7836V14.5862C0.000244141 14.7576 0.139216 14.8966 0.310602 14.8966H1.69909L7.44852 11.1297V14.8966H10.552V11.1297L16.3014 14.8966H17.6899C17.8613 14.8966 18.0002 14.7576 18.0002 14.5862V13.7836L13.0675 10.5518H18.0002V7.44835H13.0675L18.0002 4.21652V3.41387Z" fill="#F5F5F5"/>
<path d="M18.0002 8.06904H9.93125V3.10352H8.06917V8.06904H0.000244141V9.93108H8.06917V14.8966H9.93125V9.93108H18.0002V8.06904Z" fill="#FF4B55"/>
<path d="M6.29136 10.5518L0.0090332 14.6298C0.0310058 14.7796 0.15458 14.8966 0.310567 14.8966H0.73803L7.4314 10.5518H6.29136V10.5518V10.5518Z" fill="#FF4B55"/>
<path d="M12.1781 10.5518H11.0381L17.7217 14.8902C17.8775 14.8736 18.0004 14.7464 18.0004 14.5862V14.331L12.1781 10.5518Z" fill="#FF4B55"/>
<path d="M0.000488281 3.75647L5.68801 7.44836H6.82805L0.181296 3.13379C0.0751247 3.18311 0.000488281 3.28911 0.000488281 3.41388V3.75647Z" fill="#FF4B55"/>
<path d="M11.6923 7.44832L17.9897 3.36047C17.9635 3.21556 17.8426 3.10352 17.6901 3.10352H17.2455L10.5522 7.44832H11.6923Z" fill="#FF4B55"/>
</g>
<defs>
<clipPath id="clip0_723_1499">
<rect width="18" height="18" fill="white"/>
</clipPath>
</defs>
</svg>
