<svg width="18" height="18" viewBox="0 0 18 18" fill="none" xmlns="http://www.w3.org/2000/svg">
<path d="M17.6896 14.8966H0.310359C0.138972 14.8966 0 14.7577 0 14.5863V3.41387C0 3.24249 0.138972 3.10352 0.310359 3.10352H17.6896C17.861 3.10352 18 3.24249 18 3.41387V14.5863C18 14.7577 17.861 14.8966 17.6896 14.8966Z" fill="#F5F5F5"/>
<path d="M18 4.01072H0V3.41387C0 3.24249 0.138972 3.10352 0.310359 3.10352H17.6896C17.861 3.10352 18 3.24249 18 3.41387L18 4.01072Z" fill="#FF4B55"/>
<path d="M18 6.73242H0V7.63959H18V6.73242Z" fill="#FF4B55"/>
<path d="M18 4.91797H0V5.82514H18V4.91797Z" fill="#FF4B55"/>
<path d="M18 9.45408H0.310359C0.138972 9.45408 0 9.31511 0 9.14372V8.54688H18V9.45408Z" fill="#FF4B55"/>
<path d="M18 12.1758H0V13.083H18V12.1758Z" fill="#FF4B55"/>
<path d="M17.6896 14.8964H0.310359C0.138972 14.8964 0 14.7575 0 14.5861V13.9893H18V14.5861C18 14.7575 17.861 14.8964 17.6896 14.8964Z" fill="#FF4B55"/>
<path d="M18 10.3613H0V11.2685H18V10.3613Z" fill="#FF4B55"/>
<path d="M8.06894 3.10352H0.310359C0.138972 3.10352 0 3.24245 0 3.41384V9.14324C0 9.31463 0.138972 9.4536 0.310359 9.4536H8.06898C8.24036 9.4536 8.37934 9.31463 8.37934 9.14324V3.41384C8.3793 3.24245 8.24033 3.10352 8.06894 3.10352Z" fill="#41479B"/>
<path d="M0.871883 3.81591L0.940578 4.02192L1.15774 4.02357C1.18586 4.02382 1.1975 4.05968 1.17489 4.07638L1.0002 4.2054L1.06573 4.41244C1.07424 4.43923 1.04369 4.46144 1.0208 4.44506L0.844145 4.31882L0.667485 4.4451C0.644598 4.46144 0.614118 4.43926 0.622555 4.41247L0.688086 4.20544L0.513395 4.07641C0.49079 4.05968 0.502427 4.02386 0.530552 4.02361L0.747711 4.02196L0.816406 3.81594C0.825266 3.78922 0.862953 3.78922 0.871883 3.81591Z" fill="#F5F5F5"/>
<path d="M0.871639 4.89401L0.940334 5.10002L1.15749 5.10167C1.18562 5.10192 1.19726 5.13778 1.17465 5.15448L0.999959 5.2835L1.06549 5.49054C1.074 5.51732 1.04345 5.53954 1.02056 5.52316L0.843901 5.39691L0.667241 5.5232C0.644354 5.53954 0.613874 5.51736 0.622311 5.49057L0.687842 5.28354L0.513151 5.15451C0.490546 5.13778 0.502183 5.10195 0.530307 5.10171L0.747467 5.10006L0.816162 4.89404C0.825022 4.86736 0.862709 4.86736 0.871639 4.89401Z" fill="#F5F5F5"/>
<path d="M0.871639 5.97115L0.940334 6.17717L1.15749 6.17882C1.18562 6.17907 1.19726 6.21493 1.17465 6.23163L0.999959 6.36065L1.06549 6.56768C1.074 6.59447 1.04345 6.61669 1.02056 6.60031L0.843901 6.47406L0.667241 6.60034C0.644354 6.61669 0.613874 6.59451 0.622311 6.56772L0.687842 6.36068L0.513151 6.23166C0.490546 6.21493 0.502183 6.1791 0.530307 6.17886L0.747467 6.1772L0.816162 5.97119C0.825022 5.94451 0.862709 5.94451 0.871639 5.97115Z" fill="#F5F5F5"/>
<path d="M0.871639 7.04931L0.940334 7.25532L1.15749 7.25697C1.18562 7.25722 1.19726 7.29308 1.17465 7.30978L0.999959 7.4388L1.06549 7.64584C1.074 7.67262 1.04345 7.69484 1.02056 7.67846L0.843901 7.55221L0.667241 7.6785C0.644354 7.69484 0.613874 7.67266 0.622311 7.64587L0.687842 7.43884L0.513151 7.30981C0.490546 7.29308 0.502183 7.25725 0.530307 7.25701L0.747467 7.25536L0.816162 7.04934C0.825022 7.02262 0.862709 7.02262 0.871639 7.04931Z" fill="#F5F5F5"/>
<path d="M0.871639 8.12648L0.940334 8.3325L1.15749 8.33415C1.18562 8.33439 1.19726 8.37025 1.17465 8.38695L0.999959 8.51598L1.06549 8.72301C1.074 8.7498 1.04345 8.77202 1.02056 8.75564L0.843901 8.62939L0.667241 8.75567C0.644354 8.77202 0.613874 8.74983 0.622311 8.72305L0.687842 8.51601L0.513151 8.38699C0.490546 8.37025 0.502183 8.33443 0.530307 8.33418L0.747467 8.33253L0.816162 8.12652C0.825022 8.09976 0.862709 8.09976 0.871639 8.12648Z" fill="#F5F5F5"/>
<path d="M1.70806 4.34421L1.77676 4.55022L1.99392 4.55187C2.02204 4.55212 2.03368 4.58798 2.01108 4.60468L1.83638 4.7337L1.90192 4.94074C1.91042 4.96752 1.87987 4.98974 1.85699 4.97336L1.68033 4.84708L1.50367 4.97336C1.48078 4.98971 1.4503 4.96752 1.45874 4.94074L1.52427 4.7337L1.34958 4.60468C1.32697 4.58794 1.33861 4.55212 1.36673 4.55187L1.58389 4.55022L1.65259 4.34421C1.66141 4.31756 1.69917 4.31756 1.70806 4.34421Z" fill="#F5F5F5"/>
<path d="M1.70806 5.42236L1.77676 5.62837L1.99392 5.63002C2.02204 5.63027 2.03368 5.66613 2.01108 5.68283L1.83638 5.81185L1.90192 6.01889C1.91042 6.04567 1.87987 6.06789 1.85699 6.05151L1.68033 5.92523L1.50367 6.05151C1.48078 6.06786 1.4503 6.04571 1.45874 6.01889L1.52427 5.81185L1.34958 5.68283C1.32697 5.66609 1.33861 5.63027 1.36673 5.63002L1.58389 5.62837L1.65259 5.42236C1.66141 5.39567 1.69917 5.39567 1.70806 5.42236Z" fill="#F5F5F5"/>
<path d="M1.70806 6.4995L1.77676 6.70552L1.99392 6.70717C2.02204 6.70742 2.03368 6.74328 2.01108 6.75998L1.83638 6.889L1.90192 7.09604C1.91042 7.12282 1.87987 7.14504 1.85699 7.12866L1.68033 7.00238L1.50367 7.12866C1.48078 7.14501 1.4503 7.12282 1.45874 7.09604L1.52427 6.889L1.34958 6.75998C1.32697 6.74324 1.33861 6.70742 1.36673 6.70717L1.58389 6.70552L1.65259 6.4995C1.66141 6.47282 1.69917 6.47282 1.70806 6.4995Z" fill="#F5F5F5"/>
<path d="M1.70806 7.5776L1.77676 7.78362L1.99392 7.78527C2.02204 7.78552 2.03368 7.82138 2.01108 7.83808L1.83638 7.9671L1.90192 8.17413C1.91042 8.20092 1.87987 8.22314 1.85699 8.20676L1.68033 8.08048L1.50367 8.20676C1.48078 8.22311 1.4503 8.20092 1.45874 8.17413L1.52427 7.9671L1.34958 7.83808C1.32697 7.82134 1.33861 7.78552 1.36673 7.78527L1.58389 7.78362L1.65259 7.5776C1.66141 7.55096 1.69917 7.55096 1.70806 7.5776Z" fill="#F5F5F5"/>
<path d="M2.54449 3.81591L2.61319 4.02193L2.83035 4.02358C2.85847 4.02382 2.87011 4.05968 2.8475 4.07638L2.67281 4.20541L2.73834 4.41244C2.74685 4.43923 2.7163 4.46145 2.69341 4.44507L2.51675 4.31878L2.34009 4.44507C2.31721 4.46141 2.28673 4.43923 2.29516 4.41244L2.36069 4.20541L2.186 4.07638C2.1634 4.05965 2.17503 4.02382 2.20316 4.02358L2.42032 4.02193L2.48901 3.81591C2.49787 3.78923 2.5356 3.78923 2.54449 3.81591Z" fill="#F5F5F5"/>
<path d="M2.54449 4.89401L2.61319 5.10002L2.83035 5.10168C2.85847 5.10192 2.87011 5.13778 2.8475 5.15448L2.67281 5.2835L2.73834 5.49054C2.74685 5.51733 2.7163 5.53955 2.69341 5.52316L2.51675 5.39688L2.34009 5.52316C2.31721 5.53951 2.28673 5.51733 2.29516 5.49054L2.36069 5.2835L2.186 5.15448C2.1634 5.13775 2.17503 5.10192 2.20316 5.10168L2.42032 5.10002L2.48901 4.89401C2.49787 4.86736 2.5356 4.86736 2.54449 4.89401Z" fill="#F5F5F5"/>
<path d="M2.54449 5.97116L2.61319 6.17717L2.83035 6.17883C2.85847 6.17907 2.87011 6.21493 2.8475 6.23163L2.67281 6.36065L2.73834 6.56769C2.74685 6.59448 2.7163 6.6167 2.69341 6.60031L2.51675 6.47403L2.34009 6.60031C2.31721 6.61666 2.28673 6.59448 2.29516 6.56769L2.36069 6.36065L2.186 6.23163C2.1634 6.2149 2.17503 6.17907 2.20316 6.17883L2.42032 6.17717L2.48901 5.97116C2.49787 5.94451 2.5356 5.94451 2.54449 5.97116Z" fill="#F5F5F5"/>
<path d="M2.54449 7.04931L2.61319 7.25532L2.83035 7.25698C2.85847 7.25722 2.87011 7.29308 2.8475 7.30978L2.67281 7.4388L2.73834 7.64584C2.74685 7.67263 2.7163 7.69485 2.69341 7.67846L2.51675 7.55218L2.34009 7.67846C2.31721 7.69481 2.28673 7.67263 2.29516 7.64584L2.36069 7.4388L2.186 7.30978C2.1634 7.29305 2.17503 7.25722 2.20316 7.25698L2.42032 7.25532L2.48901 7.04931C2.49787 7.02263 2.5356 7.02263 2.54449 7.04931Z" fill="#F5F5F5"/>
<path d="M2.54449 8.12648L2.61319 8.3325L2.83035 8.33415C2.85847 8.3344 2.87011 8.37026 2.8475 8.38696L2.67281 8.51598L2.73834 8.72301C2.74685 8.7498 2.7163 8.77202 2.69341 8.75564L2.51675 8.62936L2.34009 8.75564C2.31721 8.77199 2.28673 8.7498 2.29516 8.72301L2.36069 8.51598L2.186 8.38696C2.1634 8.37022 2.17503 8.3344 2.20316 8.33415L2.42032 8.3325L2.48901 8.12648C2.49787 8.09977 2.5356 8.09977 2.54449 8.12648Z" fill="#F5F5F5"/>
<path d="M3.38116 4.34421L3.44986 4.55022L3.66702 4.55187C3.69514 4.55212 3.70678 4.58798 3.68417 4.60468L3.50948 4.7337L3.57501 4.94074C3.58352 4.96752 3.55297 4.98974 3.53008 4.97336L3.35342 4.84708L3.17676 4.97336C3.15388 4.98971 3.1234 4.96752 3.13183 4.94074L3.19736 4.7337L3.02267 4.60468C3.00007 4.58794 3.0117 4.55212 3.03983 4.55187L3.25699 4.55022L3.32568 4.34421C3.33451 4.31756 3.37227 4.31756 3.38116 4.34421Z" fill="#F5F5F5"/>
<path d="M3.38116 5.42236L3.44986 5.62837L3.66702 5.63002C3.69514 5.63027 3.70678 5.66613 3.68417 5.68283L3.50948 5.81185L3.57501 6.01889C3.58352 6.04567 3.55297 6.06789 3.53008 6.05151L3.35342 5.92523L3.17676 6.05151C3.15388 6.06786 3.1234 6.04571 3.13183 6.01889L3.19736 5.81185L3.02267 5.68283C3.00007 5.66609 3.0117 5.63027 3.03983 5.63002L3.25699 5.62837L3.32568 5.42236C3.33451 5.39567 3.37227 5.39567 3.38116 5.42236Z" fill="#F5F5F5"/>
<path d="M3.38116 6.4995L3.44986 6.70552L3.66702 6.70717C3.69514 6.70742 3.70678 6.74328 3.68417 6.75998L3.50948 6.889L3.57501 7.09604C3.58352 7.12282 3.55297 7.14504 3.53008 7.12866L3.35342 7.00238L3.17676 7.12866C3.15388 7.14501 3.1234 7.12282 3.13183 7.09604L3.19736 6.889L3.02267 6.75998C3.00007 6.74324 3.0117 6.70742 3.03983 6.70717L3.25699 6.70552L3.32568 6.4995C3.33451 6.47282 3.37227 6.47282 3.38116 6.4995Z" fill="#F5F5F5"/>
<path d="M3.38116 7.5776L3.44986 7.78362L3.66702 7.78527C3.69514 7.78552 3.70678 7.82138 3.68417 7.83808L3.50948 7.9671L3.57501 8.17413C3.58352 8.20092 3.55297 8.22314 3.53008 8.20676L3.35342 8.08048L3.17676 8.20676C3.15388 8.22311 3.1234 8.20092 3.13183 8.17413L3.19736 7.9671L3.02267 7.83808C3.00007 7.82134 3.0117 7.78552 3.03983 7.78527L3.25699 7.78362L3.32568 7.5776C3.33451 7.55096 3.37227 7.55096 3.38116 7.5776Z" fill="#F5F5F5"/>
<path d="M4.21762 3.81591L4.28632 4.02193L4.50348 4.02358C4.5316 4.02382 4.54324 4.05968 4.52063 4.07638L4.34594 4.20541L4.41147 4.41244C4.41998 4.43923 4.38943 4.46145 4.36654 4.44507L4.18985 4.31878L4.01319 4.44507C3.9903 4.46141 3.95982 4.43923 3.96826 4.41244L4.03379 4.20541L3.8591 4.07638C3.83649 4.05965 3.84813 4.02382 3.87625 4.02358L4.09341 4.02193L4.16211 3.81591C4.171 3.78923 4.20873 3.78923 4.21762 3.81591Z" fill="#F5F5F5"/>
<path d="M4.21762 4.89401L4.28632 5.10002L4.50348 5.10168C4.5316 5.10192 4.54324 5.13778 4.52063 5.15448L4.34594 5.2835L4.41147 5.49054C4.41998 5.51733 4.38943 5.53955 4.36654 5.52316L4.18985 5.39688L4.01319 5.52316C3.9903 5.53951 3.95982 5.51733 3.96826 5.49054L4.03379 5.2835L3.8591 5.15448C3.83649 5.13775 3.84813 5.10192 3.87625 5.10168L4.09341 5.10002L4.16211 4.89401C4.171 4.86736 4.20873 4.86736 4.21762 4.89401Z" fill="#F5F5F5"/>
<path d="M4.21762 5.97116L4.28632 6.17717L4.50348 6.17883C4.5316 6.17907 4.54324 6.21493 4.52063 6.23163L4.34594 6.36065L4.41147 6.56769C4.41998 6.59448 4.38943 6.6167 4.36654 6.60031L4.18985 6.47403L4.01319 6.60031C3.9903 6.61666 3.95982 6.59448 3.96826 6.56769L4.03379 6.36065L3.8591 6.23163C3.83649 6.2149 3.84813 6.17907 3.87625 6.17883L4.09341 6.17717L4.16211 5.97116C4.171 5.94451 4.20873 5.94451 4.21762 5.97116Z" fill="#F5F5F5"/>
<path d="M4.21762 7.04931L4.28632 7.25532L4.50348 7.25698C4.5316 7.25722 4.54324 7.29308 4.52063 7.30978L4.34594 7.4388L4.41147 7.64584C4.41998 7.67263 4.38943 7.69485 4.36654 7.67846L4.18985 7.55218L4.01319 7.67846C3.9903 7.69481 3.95982 7.67263 3.96826 7.64584L4.03379 7.4388L3.8591 7.30978C3.83649 7.29305 3.84813 7.25722 3.87625 7.25698L4.09341 7.25532L4.16211 7.04931C4.171 7.02263 4.20873 7.02263 4.21762 7.04931Z" fill="#F5F5F5"/>
<path d="M4.21762 8.12648L4.28632 8.3325L4.50348 8.33415C4.5316 8.3344 4.54324 8.37026 4.52063 8.38696L4.34594 8.51598L4.41147 8.72301C4.41998 8.7498 4.38943 8.77202 4.36654 8.75564L4.18985 8.62936L4.01319 8.75564C3.9903 8.77199 3.95982 8.7498 3.96826 8.72301L4.03379 8.51598L3.8591 8.38696C3.83649 8.37022 3.84813 8.3344 3.87625 8.33415L4.09341 8.3325L4.16211 8.12648C4.171 8.09977 4.20873 8.09977 4.21762 8.12648Z" fill="#F5F5F5"/>
<path d="M5.05401 4.34421L5.12271 4.55022L5.33987 4.55187C5.36799 4.55212 5.37963 4.58798 5.35702 4.60468L5.18233 4.7337L5.24786 4.94074C5.25637 4.96752 5.22582 4.98974 5.20293 4.97336L5.02627 4.84708L4.84961 4.97336C4.82673 4.98971 4.79625 4.96752 4.80468 4.94074L4.87022 4.7337L4.69552 4.60468C4.67292 4.58794 4.68456 4.55212 4.71268 4.55187L4.92984 4.55022L4.99854 4.34421C5.00743 4.31756 5.04512 4.31756 5.05401 4.34421Z" fill="#F5F5F5"/>
<path d="M5.05401 5.42236L5.12271 5.62837L5.33987 5.63002C5.36799 5.63027 5.37963 5.66613 5.35702 5.68283L5.18233 5.81185L5.24786 6.01889C5.25637 6.04567 5.22582 6.06789 5.20293 6.05151L5.02627 5.92523L4.84961 6.05151C4.82673 6.06786 4.79625 6.04571 4.80468 6.01889L4.87022 5.81185L4.69552 5.68283C4.67292 5.66609 4.68456 5.63027 4.71268 5.63002L4.92984 5.62837L4.99854 5.42236C5.00743 5.39567 5.04512 5.39567 5.05401 5.42236Z" fill="#F5F5F5"/>
<path d="M5.05401 6.4995L5.12271 6.70552L5.33987 6.70717C5.36799 6.70742 5.37963 6.74328 5.35702 6.75998L5.18233 6.889L5.24786 7.09604C5.25637 7.12282 5.22582 7.14504 5.20293 7.12866L5.02627 7.00238L4.84961 7.12866C4.82673 7.14501 4.79625 7.12282 4.80468 7.09604L4.87022 6.889L4.69552 6.75998C4.67292 6.74324 4.68456 6.70742 4.71268 6.70717L4.92984 6.70552L4.99854 6.4995C5.00743 6.47282 5.04512 6.47282 5.05401 6.4995Z" fill="#F5F5F5"/>
<path d="M5.05401 7.5776L5.12271 7.78362L5.33987 7.78527C5.36799 7.78552 5.37963 7.82138 5.35702 7.83808L5.18233 7.9671L5.24786 8.17413C5.25637 8.20092 5.22582 8.22314 5.20293 8.20676L5.02627 8.08048L4.84961 8.20676C4.82673 8.22311 4.79625 8.20092 4.80468 8.17413L4.87022 7.9671L4.69552 7.83808C4.67292 7.82134 4.68456 7.78552 4.71268 7.78527L4.92984 7.78362L4.99854 7.5776C5.00743 7.55096 5.04512 7.55096 5.05401 7.5776Z" fill="#F5F5F5"/>
<path d="M5.89068 3.81591L5.95938 4.02193L6.17654 4.02358C6.20466 4.02382 6.2163 4.05968 6.19369 4.07638L6.019 4.20541L6.08453 4.41244C6.09304 4.43923 6.06249 4.46145 6.0396 4.44507L5.86294 4.31878L5.68628 4.44507C5.6634 4.46141 5.63292 4.43923 5.64135 4.41244L5.70689 4.20541L5.53219 4.07638C5.50959 4.05965 5.52123 4.02382 5.54935 4.02358L5.76651 4.02193L5.83521 3.81591C5.84403 3.78923 5.88179 3.78923 5.89068 3.81591Z" fill="#F5F5F5"/>
<path d="M5.89068 4.89401L5.95938 5.10002L6.17654 5.10168C6.20466 5.10192 6.2163 5.13778 6.19369 5.15448L6.019 5.2835L6.08453 5.49054C6.09304 5.51733 6.06249 5.53955 6.0396 5.52316L5.86294 5.39688L5.68628 5.52316C5.6634 5.53951 5.63292 5.51733 5.64135 5.49054L5.70689 5.2835L5.53219 5.15448C5.50959 5.13775 5.52123 5.10192 5.54935 5.10168L5.76651 5.10002L5.83521 4.89401C5.84403 4.86736 5.88179 4.86736 5.89068 4.89401Z" fill="#F5F5F5"/>
<path d="M5.89068 5.97116L5.95938 6.17717L6.17654 6.17883C6.20466 6.17907 6.2163 6.21493 6.19369 6.23163L6.019 6.36065L6.08453 6.56769C6.09304 6.59448 6.06249 6.6167 6.0396 6.60031L5.86294 6.47403L5.68628 6.60031C5.6634 6.61666 5.63292 6.59448 5.64135 6.56769L5.70689 6.36065L5.53219 6.23163C5.50959 6.2149 5.52123 6.17907 5.54935 6.17883L5.76651 6.17717L5.83521 5.97116C5.84403 5.94451 5.88179 5.94451 5.89068 5.97116Z" fill="#F5F5F5"/>
<path d="M5.89068 7.04931L5.95938 7.25532L6.17654 7.25698C6.20466 7.25722 6.2163 7.29308 6.19369 7.30978L6.019 7.4388L6.08453 7.64584C6.09304 7.67263 6.06249 7.69485 6.0396 7.67846L5.86294 7.55218L5.68628 7.67846C5.6634 7.69481 5.63292 7.67263 5.64135 7.64584L5.70689 7.4388L5.53219 7.30978C5.50959 7.29305 5.52123 7.25722 5.54935 7.25698L5.76651 7.25532L5.83521 7.04931C5.84403 7.02263 5.88179 7.02263 5.89068 7.04931Z" fill="#F5F5F5"/>
<path d="M5.89068 8.12648L5.95938 8.3325L6.17654 8.33415C6.20466 8.3344 6.2163 8.37026 6.19369 8.38696L6.019 8.51598L6.08453 8.72301C6.09304 8.7498 6.06249 8.77202 6.0396 8.75564L5.86294 8.62936L5.68628 8.75564C5.6634 8.77199 5.63292 8.7498 5.64135 8.72301L5.70689 8.51598L5.53219 8.38696C5.50959 8.37022 5.52123 8.3344 5.54935 8.33415L5.76651 8.3325L5.83521 8.12648C5.84403 8.09977 5.88179 8.09977 5.89068 8.12648Z" fill="#F5F5F5"/>
<path d="M6.72711 4.34421L6.7958 4.55022L7.01296 4.55187C7.04109 4.55212 7.05272 4.58798 7.03012 4.60468L6.85543 4.7337L6.92096 4.94074C6.92947 4.96752 6.89892 4.98974 6.87603 4.97336L6.69937 4.84708L6.52271 4.97336C6.49982 4.98971 6.46934 4.96752 6.47778 4.94074L6.54331 4.7337L6.36862 4.60468C6.34601 4.58794 6.35765 4.55212 6.38578 4.55187L6.60294 4.55022L6.67163 4.34421C6.68049 4.31756 6.71825 4.31756 6.72711 4.34421Z" fill="#F5F5F5"/>
<path d="M6.72711 5.42236L6.7958 5.62837L7.01296 5.63002C7.04109 5.63027 7.05272 5.66613 7.03012 5.68283L6.85543 5.81185L6.92096 6.01889C6.92947 6.04567 6.89892 6.06789 6.87603 6.05151L6.69937 5.92523L6.52271 6.05151C6.49982 6.06786 6.46934 6.04571 6.47778 6.01889L6.54331 5.81185L6.36862 5.68283C6.34601 5.66609 6.35765 5.63027 6.38578 5.63002L6.60294 5.62837L6.67163 5.42236C6.68049 5.39567 6.71825 5.39567 6.72711 5.42236Z" fill="#F5F5F5"/>
<path d="M6.72711 6.4995L6.7958 6.70552L7.01296 6.70717C7.04109 6.70742 7.05272 6.74328 7.03012 6.75998L6.85543 6.889L6.92096 7.09604C6.92947 7.12282 6.89892 7.14504 6.87603 7.12866L6.69937 7.00238L6.52271 7.12866C6.49982 7.14501 6.46934 7.12282 6.47778 7.09604L6.54331 6.889L6.36862 6.75998C6.34601 6.74324 6.35765 6.70742 6.38578 6.70717L6.60294 6.70552L6.67163 6.4995C6.68049 6.47282 6.71825 6.47282 6.72711 6.4995Z" fill="#F5F5F5"/>
<path d="M6.72711 7.5776L6.7958 7.78362L7.01296 7.78527C7.04109 7.78552 7.05272 7.82138 7.03012 7.83808L6.85543 7.9671L6.92096 8.17413C6.92947 8.20092 6.89892 8.22314 6.87603 8.20676L6.69937 8.08048L6.52271 8.20676C6.49982 8.22311 6.46934 8.20092 6.47778 8.17413L6.54331 7.9671L6.36862 7.83808C6.34601 7.82134 6.35765 7.78552 6.38578 7.78527L6.60294 7.78362L6.67163 7.5776C6.68049 7.55096 6.71825 7.55096 6.72711 7.5776Z" fill="#F5F5F5"/>
<path d="M7.56353 3.81591L7.63223 4.02193L7.84939 4.02358C7.87751 4.02382 7.88915 4.05968 7.86654 4.07638L7.69185 4.20541L7.75738 4.41244C7.76589 4.43923 7.73534 4.46145 7.71245 4.44507L7.5358 4.31878L7.35914 4.44507C7.33625 4.46141 7.30577 4.43923 7.31421 4.41244L7.37974 4.20541L7.20505 4.07638C7.18244 4.05965 7.19408 4.02382 7.2222 4.02358L7.43936 4.02193L7.50806 3.81591C7.51692 3.78923 7.5546 3.78923 7.56353 3.81591Z" fill="#F5F5F5"/>
<path d="M7.56353 4.89401L7.63223 5.10002L7.84939 5.10168C7.87751 5.10192 7.88915 5.13778 7.86654 5.15448L7.69185 5.2835L7.75738 5.49054C7.76589 5.51733 7.73534 5.53955 7.71245 5.52316L7.5358 5.39688L7.35914 5.52316C7.33625 5.53951 7.30577 5.51733 7.31421 5.49054L7.37974 5.2835L7.20505 5.15448C7.18244 5.13775 7.19408 5.10192 7.2222 5.10168L7.43936 5.10002L7.50806 4.89401C7.51692 4.86736 7.5546 4.86736 7.56353 4.89401Z" fill="#F5F5F5"/>
<path d="M7.56353 5.97116L7.63223 6.17717L7.84939 6.17883C7.87751 6.17907 7.88915 6.21493 7.86654 6.23163L7.69185 6.36065L7.75738 6.56769C7.76589 6.59448 7.73534 6.6167 7.71245 6.60031L7.5358 6.47403L7.35914 6.60031C7.33625 6.61666 7.30577 6.59448 7.31421 6.56769L7.37974 6.36065L7.20505 6.23163C7.18244 6.2149 7.19408 6.17907 7.2222 6.17883L7.43936 6.17717L7.50806 5.97116C7.51692 5.94451 7.5546 5.94451 7.56353 5.97116Z" fill="#F5F5F5"/>
<path d="M7.56353 7.04931L7.63223 7.25532L7.84939 7.25698C7.87751 7.25722 7.88915 7.29308 7.86654 7.30978L7.69185 7.4388L7.75738 7.64584C7.76589 7.67263 7.73534 7.69485 7.71245 7.67846L7.5358 7.55218L7.35914 7.67846C7.33625 7.69481 7.30577 7.67263 7.31421 7.64584L7.37974 7.4388L7.20505 7.30978C7.18244 7.29305 7.19408 7.25722 7.2222 7.25698L7.43936 7.25532L7.50806 7.04931C7.51692 7.02263 7.5546 7.02263 7.56353 7.04931Z" fill="#F5F5F5"/>
<path d="M7.56353 8.12648L7.63223 8.3325L7.84939 8.33415C7.87751 8.3344 7.88915 8.37026 7.86654 8.38696L7.69185 8.51598L7.75738 8.72301C7.76589 8.7498 7.73534 8.77202 7.71245 8.75564L7.5358 8.62936L7.35914 8.75564C7.33625 8.77199 7.30577 8.7498 7.31421 8.72301L7.37974 8.51598L7.20505 8.38696C7.18244 8.37022 7.19408 8.3344 7.2222 8.33415L7.43936 8.3325L7.50806 8.12648C7.51692 8.09977 7.5546 8.09977 7.56353 8.12648Z" fill="#F5F5F5"/>
</svg>
